<svg xmlns="http://www.w3.org/2000/svg" fill="none" viewBox="10 10 77 77">
    <path d="M64.34 39.24L68.63 44.27C69.12 44.84 69.56 45.3 69.73 45.57C71.01 46.84 71.73 48.56 71.73 50.36C71.61 52.47 70.23 53.92 68.95 55.46L65.96 58.98L64.39 60.8C64.33 60.87 64.3 60.94 64.29 61.03C64.28 61.11 64.29 61.19 64.32 61.27C64.36 61.34 64.42 61.41 64.49 61.45C64.56 61.5 64.65 61.52 64.73 61.51H80.37C82.76 61.51 85.76 63.52 85.59 66.57C85.58 67.95 85.02 69.28 84.03 70.26C83.04 71.24 81.69 71.79 80.28 71.79H55.8C54.19 71.79 49.86 71.97 48.65 68.27C48.39 67.5 48.35 66.67 48.54 65.88C48.9 64.71 49.45 63.62 50.19 62.64C51.42 60.81 52.76 58.99 54.07 57.22C55.76 54.9 57.5 52.66 59.22 50.29C59.28 50.22 59.31 50.12 59.31 50.02C59.31 49.93 59.28 49.83 59.22 49.76L53 42.46C52.96 42.4 52.9 42.36 52.84 42.33C52.78 42.3 52.72 42.29 52.65 42.29C52.58 42.29 52.52 42.3 52.46 42.33C52.4 42.36 52.34 42.4 52.3 42.46C50.64 44.67 43.34 54.49 41.79 56.48C40.23 58.47 36.4 58.58 34.28 56.48L24.55 46.85C24.49 46.79 24.41 46.75 24.32 46.73C24.24 46.72 24.15 46.73 24.07 46.76C23.99 46.79 23.92 46.85 23.87 46.92C23.82 46.99 23.79 47.08 23.79 47.16V65.67C23.82 66.99 23.42 68.27 22.66 69.36C21.91 70.44 20.83 71.26 19.57 71.7C18.77 71.98 17.91 72.06 17.07 71.94C16.23 71.82 15.43 71.51 14.74 71.03C14.05 70.54 13.49 69.9 13.1 69.16C12.71 68.42 12.5 67.6 12.5 66.76V33.48C12.56 32.28 12.99 31.13 13.75 30.19C14.51 29.25 15.55 28.57 16.72 28.24C17.73 27.98 18.79 27.98 19.79 28.25C20.79 28.52 21.71 29.05 22.44 29.78L37.4 44.54C37.44 44.58 37.5 44.62 37.56 44.64C37.62 44.66 37.68 44.67 37.75 44.66C37.81 44.66 37.87 44.64 37.93 44.61C37.98 44.58 38.03 44.53 38.07 44.48L48.69 29.99C49.18 29.4 49.8 28.92 50.5 28.59C51.19 28.26 51.96 28.09 52.73 28.08H80.37C81.12 28.08 81.87 28.24 82.56 28.55C83.25 28.86 83.86 29.31 84.36 29.87C84.86 30.43 85.23 31.09 85.45 31.81C85.66 32.52 85.72 33.27 85.62 34.01C85.43 35.29 84.77 36.46 83.77 37.3C82.76 38.14 81.49 38.59 80.17 38.57H64.7C64.62 38.57 64.54 38.6 64.48 38.64C64.41 38.68 64.36 38.73 64.32 38.8C64.29 38.87 64.27 38.95 64.27 39.02C64.28 39.1 64.3 39.17 64.34 39.24Z" fill="#F5F3F7"/>
</svg>